<svg width="22" height="18" viewBox="0 0 22 18" fill="none" xmlns="http://www.w3.org/2000/svg">
<path fill-rule="evenodd" clip-rule="evenodd" d="M17.16 3.375H19.8C21.01 3.375 22 4.3875 22 5.625V15.75C22 16.9875 21.01 18 19.8 18H2.2C0.99 18 0 16.9875 0 15.75V5.625C0 4.3875 0.99 3.375 2.2 3.375H4.84C5.203 3.375 5.59372 3.087 5.70878 2.73487L6.39122 0.64035C6.50584 0.288 6.897 0 7.26 0H14.74C15.103 0 15.4937 0.288 15.6088 0.640125L16.2912 2.73465C16.4058 3.087 16.797 3.375 17.16 3.375ZM7.7 10.125C7.7 8.26155 9.1773 6.75 11 6.75C12.8223 6.75 14.3 8.26155 14.3 10.125C14.3 11.9891 12.8223 13.5 11 13.5C9.1773 13.5 7.7 11.9891 7.7 10.125ZM11 15.75C7.96246 15.75 5.5 13.2316 5.5 10.125C5.5 7.01865 7.96246 4.5 11 4.5C14.0371 4.5 16.5 7.01865 16.5 10.125C16.5 13.2316 14.0371 15.75 11 15.75ZM18.26 6.41092C18.26 6.84608 18.605 7.19843 19.03 7.19843C19.4553 7.19843 19.8 6.84608 19.8 6.41092C19.8 5.97622 19.4555 5.62343 19.03 5.62343C18.605 5.62343 18.26 5.97622 18.26 6.41092Z" fill="#8E8E93"/>
</svg>
