<svg width="19" height="25" viewBox="0 0 19 25" fill="none" xmlns="http://www.w3.org/2000/svg">
<path fill-rule="evenodd" clip-rule="evenodd" d="M18.4778 25H0.522824C0.418704 25 0.319144 24.9576 0.247704 24.8826C0.176264 24.8076 0.138264 24.7068 0.142824 24.6031L0.997824 6.70533C1.0077 6.50306 1.17414 6.34473 1.37782 6.34473H17.6228C17.8257 6.34473 17.9929 6.50306 18.0028 6.70533L18.8578 24.6031C18.8624 24.7068 18.8251 24.8076 18.7529 24.8826C18.6807 24.9576 18.5812 25 18.4778 25ZM0.921064 24.2425H18.0788L17.2603 7.1023H1.73958L0.921064 24.2425Z" fill="black"/>
<path fill-rule="evenodd" clip-rule="evenodd" d="M13.6077 8.61742C13.3979 8.61742 13.2277 8.44773 13.2277 8.23864V4.47348C13.2277 2.425 11.5557 0.757576 9.49989 0.757576C7.44409 0.757576 5.77208 2.425 5.77208 4.47348V8.23864C5.77208 8.44773 5.60184 8.61742 5.39208 8.61742C5.18232 8.61742 5.01208 8.44773 5.01208 8.23864V4.47348C5.01208 2.00682 7.02533 0 9.49989 0C11.9744 0 13.9877 2.00682 13.9877 4.47348V8.23864C13.9877 8.44773 13.8182 8.61742 13.6077 8.61742Z" fill="black"/>
</svg>
