<svg width="26" height="26" viewBox="0 0 26 26" fill="none" xmlns="http://www.w3.org/2000/svg">
<path d="M23.5 20C23.776 20 24 19.776 24 19.5C24 19.224 23.776 19 23.5 19C23.224 19 23 19.224 23 19.5C23 19.776 23.224 20 23.5 20Z" fill="#F2F2F2"/>
<path fill-rule="evenodd" clip-rule="evenodd" d="M24.4766 26H1.52344C0.683365 26 0 25.3166 0 24.4766V11.9844C0 11.7039 0.227325 11.4766 0.507812 11.4766H7.41406V5.58594C7.41406 5.30545 7.64139 5.07812 7.92188 5.07812H11.7812C11.7812 2.26988 14.0533 0 16.8594 0C19.6595 0 21.9375 2.27802 21.9375 5.07812H25.4922C25.7727 5.07812 26 5.30545 26 5.58594V24.4766C26 25.3166 25.3166 26 24.4766 26ZM1.01562 22.6484V24.4766C1.01562 24.7567 1.24335 24.9844 1.52344 24.9844H12.2891C12.5692 24.9844 12.7969 24.7567 12.7969 24.4766V22.6484H1.01562ZM24.4766 24.9844H13.7252C13.7816 24.8255 13.8125 24.6547 13.8125 24.4766V22.6484H24.9844V24.4766C24.9844 24.7567 24.7567 24.9844 24.4766 24.9844ZM20.9219 5.07812C20.9219 2.838 19.0995 1.01562 16.8594 1.01562C14.6129 1.01562 12.7969 2.83304 12.7969 5.07812H20.9219ZM8.42969 6.09375H11.7812V8.42969H11.2734C10.993 8.42969 10.7656 8.65701 10.7656 8.9375C10.7656 9.21799 10.993 9.44531 11.2734 9.44531H13.3047C13.5852 9.44531 13.8125 9.21799 13.8125 8.9375C13.8125 8.65701 13.5852 8.42969 13.3047 8.42969H12.7969V6.09375H20.9219V8.42969H20.4141C20.1336 8.42969 19.9062 8.65701 19.9062 8.9375C19.9062 9.21799 20.1336 9.44531 20.4141 9.44531H22.4453C22.7258 9.44531 22.9531 9.21799 22.9531 8.9375C22.9531 8.65701 22.7258 8.42969 22.4453 8.42969H21.9375V6.09375H24.9844V21.6328H13.8125V11.9844C13.8125 11.7039 13.5852 11.4766 13.3047 11.4766H8.42969V6.09375ZM12.7969 21.6328V12.4922H1.01562V21.6328H12.7969Z" fill="#F2F2F2"/>
<path d="M3.5 16V17C3.5 18.6574 4.84258 20 6.5 20C8.1543 20 9.5 18.6543 9.5 17V16C9.77617 16 10 15.7762 10 15.5C10 15.2238 9.77617 15 9.5 15H8.5C8.22383 15 8 15.2238 8 15.5C8 15.7762 8.22383 16 8.5 16V17C8.5 18.1027 7.60273 19 6.5 19C5.39531 19 4.5 18.1047 4.5 17V16C4.77617 16 5 15.7762 5 15.5C5 15.2238 4.77617 15 4.5 15H3.5C3.22383 15 3 15.2238 3 15.5C3 15.7762 3.22383 16 3.5 16Z" fill="#F2F2F2"/>
<path d="M23.5 18C23.7762 18 24 17.7762 24 17.5V13.5C24 13.2238 23.7762 13 23.5 13C23.2238 13 23 13.2238 23 13.5V17.5C23 17.7762 23.2238 18 23.5 18Z" fill="#F2F2F2"/>
</svg>
