<svg width="26" height="30" viewBox="0 0 26 30" fill="none" xmlns="http://www.w3.org/2000/svg">
<path fill-rule="evenodd" clip-rule="evenodd" d="M18.0959 13.0956C16.8322 14.3595 15.2859 15 13.5 15C11.7145 15 10.1683 14.3592 8.90429 13.0959C7.64073 11.8323 7 10.286 7 8.49979C7 6.71404 7.64073 5.16774 8.90429 3.90415C10.1678 2.64055 11.7139 2 13.5 2C15.2857 2 16.8319 2.64055 18.0957 3.90394C19.3595 5.16795 20 6.71424 20 8.49979C20 10.286 19.3593 11.8321 18.0959 13.0956ZM13.5 3.5815C12.1296 3.5815 10.9922 4.0528 10.0227 5.02238C9.05295 5.99216 8.58145 7.12975 8.58145 8.49979C8.58145 9.87025 9.05295 11.0078 10.0227 11.9774C10.9927 12.947 12.13 13.4185 13.5 13.4185C14.8702 13.4185 16.0078 12.9472 16.9775 11.9774C17.9471 11.0076 18.4185 9.87025 18.4185 8.49979C18.4185 7.12975 17.9471 5.99216 16.9775 5.02238C16.0078 4.0528 14.8702 3.5815 13.5 3.5815Z" fill="#A0A0A0"/>
<path d="M18.0959 13.0956L18.2727 13.2724L18.2727 13.2724L18.0959 13.0956ZM8.90429 13.0959L8.72751 13.2726L8.72756 13.2727L8.90429 13.0959ZM8.90429 3.90415L9.08107 4.08092L8.90429 3.90415ZM18.0957 3.90394L18.2725 3.72718L18.2725 3.72714L18.0957 3.90394ZM10.0227 5.02238L9.84592 4.84561V4.84561L10.0227 5.02238ZM10.0227 11.9774L9.84593 12.1542L9.84595 12.1542L10.0227 11.9774ZM16.9775 11.9774L17.1543 12.1542L17.1543 12.1542L16.9775 11.9774ZM16.9775 5.02238L17.1543 4.84562L17.1543 4.84559L16.9775 5.02238ZM13.5 15.25C15.3522 15.25 16.9621 14.5831 18.2727 13.2724L17.9191 12.9189C16.7022 14.1358 15.2196 14.75 13.5 14.75V15.25ZM8.72756 13.2727C10.0383 14.5829 11.6481 15.25 13.5 15.25V14.75C11.7809 14.75 10.2982 14.1356 9.08103 12.919L8.72756 13.2727ZM6.75 8.49979C6.75 10.3523 7.4171 11.9622 8.72751 13.2726L9.08107 12.9191C7.86437 11.7023 7.25 10.2196 7.25 8.49979H6.75ZM8.72751 3.72737C7.41711 5.03782 6.75 6.64769 6.75 8.49979H7.25C7.25 6.78039 7.86436 5.29767 9.08107 4.08092L8.72751 3.72737ZM13.5 1.75C11.6476 1.75 10.0379 2.41691 8.72751 3.72737L9.08107 4.08092C10.2978 2.86419 11.7802 2.25 13.5 2.25V1.75ZM18.2725 3.72714C16.9618 2.41691 15.352 1.75 13.5 1.75V2.25C15.2194 2.25 16.702 2.86419 17.919 4.08074L18.2725 3.72714ZM20.25 8.49979C20.25 6.6479 19.5831 5.03804 18.2725 3.72718L17.9189 4.0807C19.1358 5.29786 19.75 6.78059 19.75 8.49979H20.25ZM18.2727 13.2724C19.5829 11.962 20.25 10.3523 20.25 8.49979H19.75C19.75 10.2196 19.1356 11.7021 17.9191 12.9189L18.2727 13.2724ZM10.1995 5.19915C11.1222 4.27643 12.1959 3.8315 13.5 3.8315V3.3315C12.0632 3.3315 10.8623 3.82918 9.84592 4.84561L10.1995 5.19915ZM8.83145 8.49979C8.83145 7.19613 9.27655 6.12211 10.1995 5.19915L9.84592 4.84561C8.82934 5.86221 8.33145 7.06337 8.33145 8.49979H8.83145ZM10.1995 11.8006C9.27656 10.8779 8.83145 9.80389 8.83145 8.49979H8.33145C8.33145 9.93662 8.82933 11.1378 9.84593 12.1542L10.1995 11.8006ZM13.5 13.1685C12.1964 13.1685 11.1226 12.7234 10.1994 11.8006L9.84595 12.1542C10.8627 13.1706 12.0636 13.6685 13.5 13.6685V13.1685ZM16.8007 11.8006C15.8778 12.7236 14.8039 13.1685 13.5 13.1685V13.6685C14.9366 13.6685 16.1377 13.1708 17.1543 12.1542L16.8007 11.8006ZM18.1685 8.49979C18.1685 9.80387 17.7234 10.8777 16.8007 11.8007L17.1543 12.1542C18.1707 11.1376 18.6685 9.93663 18.6685 8.49979H18.1685ZM16.8007 5.19913C17.7234 6.12209 18.1685 7.19613 18.1685 8.49979H18.6685C18.6685 7.06337 18.1707 5.86223 17.1543 4.84562L16.8007 5.19913ZM13.5 3.8315C14.8039 3.8315 15.8778 4.27643 16.8007 5.19917L17.1543 4.84559C16.1377 3.82918 14.9366 3.3315 13.5 3.3315V3.8315Z" fill="white"/>
<path fill-rule="evenodd" clip-rule="evenodd" d="M23.3232 19.0033C23.4882 19.4946 23.626 20.0322 23.733 20.6009C23.8391 21.1653 23.9111 21.6998 23.9467 22.1898C23.9819 22.6687 23.9998 23.1685 24 23.6752C24 24.9882 23.5624 26.0513 22.6994 26.8345C21.847 27.6078 20.7195 28 19.3485 28H6.65152C5.28006 28 4.15264 27.6078 3.30044 26.8345C2.43757 26.0507 2 24.988 2 23.6754C2 23.1704 2.0177 22.6706 2.05271 22.1904C2.08832 21.6992 2.16014 21.1645 2.26636 20.6009C2.37339 20.0322 2.5112 19.4948 2.67597 19.0035C2.84657 18.4952 3.07833 17.9939 3.36461 17.5133C3.66156 17.0147 4.01081 16.5805 4.40271 16.2229C4.81292 15.8486 5.31487 15.5479 5.89467 15.329C6.47267 15.1107 7.11323 15 7.79886 15C8.06804 15 8.32836 15.1053 8.83071 15.4175C9.14476 15.6126 9.50689 15.8352 9.90704 16.079C10.2519 16.2889 10.72 16.4855 11.2974 16.6634C11.8617 16.8374 12.4343 16.9257 12.9992 16.9257C13.5645 16.9257 14.1371 16.8374 14.701 16.6634C15.279 16.4854 15.7469 16.2887 16.0924 16.0788C16.4963 15.8327 16.8583 15.6101 17.1677 15.4177C17.6704 15.1055 17.9308 15.0002 18.1999 15.0002C18.8854 15.0002 19.5261 15.1107 20.1043 15.3288C20.6845 15.5481 21.1863 15.8488 21.5961 16.2227C21.988 16.5801 22.3372 17.0145 22.6344 17.5133C22.9211 17.9939 23.1526 18.4954 23.3232 19.0033ZM19.3483 26.5264C20.3232 26.5264 21.0708 26.2779 21.6339 25.7668C22.1861 25.2657 22.4545 24.5815 22.4547 23.6754C22.4545 23.2028 22.438 22.7378 22.4052 22.2928V22.2925C22.3734 21.855 22.3083 21.3735 22.2121 20.861C22.1171 20.3562 21.9958 19.8824 21.8516 19.4526C21.7136 19.0415 21.5249 18.6338 21.2909 18.2414C21.0678 17.8669 20.8111 17.5459 20.5278 17.2875C20.2629 17.0458 19.9289 16.8476 19.5356 16.6991C19.1714 16.5617 18.7624 16.4865 18.3182 16.4752C18.2641 16.5026 18.1677 16.5552 18.0116 16.6521C17.694 16.8497 17.3381 17.0684 16.9238 17.3209C16.467 17.5987 15.8793 17.8491 15.1764 18.0657C14.4588 18.2869 13.7263 18.3993 12.9994 18.3993C12.2725 18.3993 11.5402 18.2869 10.8222 18.0655C10.1199 17.8493 9.53203 17.5987 9.07575 17.3213C8.67098 17.0747 8.30483 16.8495 7.98716 16.6521C7.83104 16.555 7.73468 16.5026 7.68056 16.4752C7.23655 16.4865 6.82755 16.5617 6.46361 16.6991C6.0701 16.8476 5.73614 17.0456 5.47119 17.2875C5.18792 17.5461 4.93121 17.8671 4.7081 18.2412C4.47433 18.6338 4.28582 19.0413 4.14761 19.4528C4.00357 19.882 3.88246 20.3561 3.7873 20.8612C3.69093 21.3727 3.62595 21.8541 3.59416 22.2923C3.56157 22.7389 3.54527 23.2042 3.54527 23.6754C3.54527 24.5813 3.81365 25.2657 4.36589 25.767C4.9288 26.2779 5.67639 26.5264 6.65152 26.5264H19.3483Z" fill="#A0A0A0"/>
<path d="M23.733 20.6009L23.9787 20.5547L23.9787 20.5546L23.733 20.6009ZM23.3232 19.0033L23.5602 18.9237L23.5602 18.9237L23.3232 19.0033ZM23.9467 22.1898L23.6973 22.2079L23.6974 22.2081L23.9467 22.1898ZM24 23.6752H24.25V23.6751L24 23.6752ZM22.6994 26.8345L22.8673 27.0196L22.8674 27.0196L22.6994 26.8345ZM3.30044 26.8345L3.13235 27.0195L3.13243 27.0196L3.30044 26.8345ZM2.05271 22.1904L2.30205 22.2086L2.30206 22.2085L2.05271 22.1904ZM2.26636 20.6009L2.51204 20.6472L2.51205 20.6471L2.26636 20.6009ZM2.67597 19.0035L2.43897 18.9239L2.43894 18.924L2.67597 19.0035ZM3.36461 17.5133L3.5794 17.6413L3.57941 17.6412L3.36461 17.5133ZM4.40271 16.2229L4.2342 16.0382L4.2342 16.0382L4.40271 16.2229ZM5.89467 15.329L5.98298 15.5629L5.98302 15.5629L5.89467 15.329ZM8.83071 15.4175L8.69877 15.6298L8.69878 15.6298L8.83071 15.4175ZM9.90704 16.079L9.77694 16.2925L9.77705 16.2926L9.90704 16.079ZM11.2974 16.6634L11.3711 16.4245L11.371 16.4245L11.2974 16.6634ZM14.701 16.6634L14.6274 16.4245L14.6273 16.4245L14.701 16.6634ZM16.0924 16.0788L16.2222 16.2925L16.2224 16.2923L16.0924 16.0788ZM17.1677 15.4177L17.0358 15.2053L17.0356 15.2054L17.1677 15.4177ZM20.1043 15.3288L20.1927 15.095L20.1926 15.0949L20.1043 15.3288ZM21.5961 16.2227L21.4276 16.4074L21.4276 16.4074L21.5961 16.2227ZM22.6344 17.5133L22.4196 17.6413L22.4197 17.6414L22.6344 17.5133ZM21.6339 25.7668L21.4659 25.5817L21.4659 25.5817L21.6339 25.7668ZM22.4547 23.6754L22.7047 23.6754V23.6753L22.4547 23.6754ZM22.4052 22.2928H22.1552V22.302L22.1559 22.3112L22.4052 22.2928ZM22.4052 22.2925H22.6552V22.2834L22.6546 22.2743L22.4052 22.2925ZM22.2121 20.861L22.4578 20.8149L22.4578 20.8148L22.2121 20.861ZM21.8516 19.4526L22.0886 19.3731L22.0886 19.373L21.8516 19.4526ZM21.2909 18.2414L21.0761 18.3694L21.0762 18.3695L21.2909 18.2414ZM20.5278 17.2875L20.3593 17.4722L20.3593 17.4722L20.5278 17.2875ZM19.5356 16.6991L19.6239 16.4652L19.6238 16.4652L19.5356 16.6991ZM18.3182 16.4752L18.3246 16.2253L18.2615 16.2237L18.2052 16.2522L18.3182 16.4752ZM18.0116 16.6521L17.8798 16.4397L17.8796 16.4398L18.0116 16.6521ZM16.9238 17.3209L17.0537 17.5345L17.054 17.5344L16.9238 17.3209ZM15.1764 18.0657L15.1028 17.8268L15.1027 17.8268L15.1764 18.0657ZM10.8222 18.0655L10.8959 17.8266L10.8958 17.8265L10.8222 18.0655ZM9.07575 17.3213L8.94571 17.5348L8.94587 17.5349L9.07575 17.3213ZM7.98716 16.6521L7.85514 16.8644L7.8552 16.8644L7.98716 16.6521ZM7.68056 16.4752L7.7936 16.2522L7.7373 16.2237L7.67419 16.2253L7.68056 16.4752ZM6.46361 16.6991L6.55188 16.933L6.5519 16.933L6.46361 16.6991ZM5.47119 17.2875L5.63975 17.4721L5.63976 17.4721L5.47119 17.2875ZM4.7081 18.2412L4.49339 18.1132L4.49331 18.1133L4.7081 18.2412ZM4.14761 19.4528L3.91062 19.3732L3.91061 19.3732L4.14761 19.4528ZM3.7873 20.8612L4.03297 20.9075L4.03298 20.9075L3.7873 20.8612ZM3.59416 22.2923L3.8435 22.3105L3.84351 22.3104L3.59416 22.2923ZM4.36589 25.767L4.19786 25.9521L4.19787 25.9521L4.36589 25.767ZM23.9787 20.5546C23.8698 19.976 23.7293 19.4272 23.5602 18.9237L23.0862 19.0828C23.2471 19.5621 23.3822 20.0884 23.4873 20.6471L23.9787 20.5546ZM24.196 22.1717C24.1596 21.6708 24.0862 21.1268 23.9787 20.5547L23.4873 20.647C23.5919 21.2038 23.6625 21.7288 23.6973 22.2079L24.196 22.1717ZM24.25 23.6751C24.2498 23.1626 24.2317 22.6568 24.196 22.1715L23.6974 22.2081C23.7321 22.6806 23.7498 23.1743 23.75 23.6753L24.25 23.6751ZM22.8674 27.0196C23.7896 26.1828 24.25 25.0488 24.25 23.6752H23.75C23.75 24.9276 23.3353 25.9198 22.5314 26.6493L22.8674 27.0196ZM19.3485 28.25C20.7691 28.25 21.9604 27.8425 22.8673 27.0196L22.5314 26.6493C21.7335 27.3732 20.67 27.75 19.3485 27.75V28.25ZM6.65152 28.25H19.3485V27.75H6.65152V28.25ZM3.13243 27.0196C4.03917 27.8425 5.23053 28.25 6.65152 28.25V27.75C5.3296 27.75 4.26611 27.3732 3.46844 26.6493L3.13243 27.0196ZM1.75 23.6754C1.75 25.0487 2.21046 26.1822 3.13235 27.0195L3.46852 26.6494C2.66468 25.9193 2.25 24.9274 2.25 23.6754H1.75ZM1.80337 22.1722C1.7679 22.6588 1.75 23.1646 1.75 23.6754H2.25C2.25 23.1762 2.26751 22.6824 2.30205 22.2086L1.80337 22.1722ZM2.02069 20.5546C1.91298 21.1261 1.83976 21.6703 1.80336 22.1723L2.30206 22.2085C2.33688 21.7282 2.4073 21.203 2.51204 20.6472L2.02069 20.5546ZM2.43894 18.924C2.27014 19.4274 2.12959 19.976 2.02068 20.5546L2.51205 20.6471C2.6172 20.0884 2.75227 19.5623 2.913 19.083L2.43894 18.924ZM3.14983 17.3854C2.85486 17.8806 2.61548 18.3981 2.43897 18.9239L2.91297 19.083C3.07766 18.5924 3.30181 18.1073 3.5794 17.6413L3.14983 17.3854ZM4.2342 16.0382C3.82254 16.4139 3.45814 16.8677 3.14982 17.3854L3.57941 17.6412C3.86497 17.1617 4.19907 16.7472 4.57123 16.4076L4.2342 16.0382ZM5.80637 15.0951C5.20041 15.3239 4.67037 15.6402 4.2342 16.0382L4.57122 16.4076C4.95547 16.0569 5.42932 15.772 5.98298 15.5629L5.80637 15.0951ZM7.79886 14.75C7.08634 14.75 6.41548 14.8651 5.80633 15.0952L5.98302 15.5629C6.52985 15.3563 7.14011 15.25 7.79886 15.25V14.75ZM8.96266 15.2051C8.45783 14.8914 8.14463 14.75 7.79886 14.75V15.25C7.99145 15.25 8.1989 15.3192 8.69877 15.6298L8.96266 15.2051ZM10.0371 15.8655C9.63744 15.6219 9.27594 15.3998 8.96265 15.2051L8.69878 15.6298C9.01358 15.8254 9.37634 16.0484 9.77694 16.2925L10.0371 15.8655ZM11.371 16.4245C10.8046 16.25 10.3577 16.0607 10.037 15.8655L9.77705 16.2926C10.146 16.5171 10.6355 16.7211 11.2238 16.9023L11.371 16.4245ZM12.9992 16.6757C12.4604 16.6757 11.9126 16.5915 11.3711 16.4245L11.2237 16.9023C11.8108 17.0833 12.4082 17.1757 12.9992 17.1757V16.6757ZM14.6273 16.4245C14.0862 16.5915 13.5384 16.6757 12.9992 16.6757V17.1757C13.5906 17.1757 14.188 17.0833 14.7747 16.9023L14.6273 16.4245ZM15.9625 15.8652C15.6411 16.0605 15.1944 16.2498 14.6274 16.4245L14.7746 16.9023C15.3636 16.7209 15.8528 16.5169 16.2222 16.2925L15.9625 15.8652ZM17.0356 15.2054C16.727 15.3973 16.3658 15.6195 15.9623 15.8653L16.2224 16.2923C16.6269 16.0459 16.9895 15.8229 17.2997 15.63L17.0356 15.2054ZM18.1999 14.7502C17.8542 14.7502 17.541 14.8916 17.0358 15.2053L17.2995 15.6301C17.7999 15.3194 18.0073 15.2502 18.1999 15.2502V14.7502ZM20.1926 15.0949C19.5832 14.865 18.9122 14.7502 18.1999 14.7502V15.2502C18.8585 15.2502 19.469 15.3564 20.0161 15.5627L20.1926 15.0949ZM21.7646 16.038C21.3288 15.6404 20.799 15.3241 20.1927 15.095L20.0159 15.5627C20.5701 15.7721 21.0437 16.0571 21.4276 16.4074L21.7646 16.038ZM22.8492 17.3854C22.5407 16.8675 22.1763 16.4135 21.7645 16.038L21.4276 16.4074C21.7997 16.7468 22.1338 17.1615 22.4196 17.6413L22.8492 17.3854ZM23.5602 18.9237C23.3837 18.3983 23.1446 17.8806 22.8491 17.3852L22.4197 17.6414C22.6976 18.1072 22.9215 18.5926 23.0862 19.0829L23.5602 18.9237ZM21.4659 25.5817C20.9606 26.0403 20.2792 26.2764 19.3483 26.2764V26.7764C20.3673 26.7764 21.181 26.5155 21.8019 25.9519L21.4659 25.5817ZM22.2047 23.6753C22.2045 24.5274 21.9549 25.1379 21.4659 25.5817L21.8019 25.9519C22.4174 25.3934 22.7045 24.6356 22.7047 23.6754L22.2047 23.6753ZM22.1559 22.3112C22.1882 22.7496 22.2045 23.2086 22.2047 23.6755L22.7047 23.6753C22.7045 23.1971 22.6878 22.7259 22.6546 22.2745L22.1559 22.3112ZM22.1552 22.2925V22.2928H22.6552V22.2925H22.1552ZM21.9664 20.9071C22.0612 21.4121 22.1249 21.8842 22.1559 22.3106L22.6546 22.2743C22.622 21.8259 22.5554 21.3348 22.4578 20.8149L21.9664 20.9071ZM21.6146 19.5322C21.7547 19.9497 21.8733 20.4123 21.9664 20.9072L22.4578 20.8148C22.361 20.3002 22.2369 19.815 22.0886 19.3731L21.6146 19.5322ZM21.0762 18.3695C21.3015 18.7473 21.4825 19.1388 21.6146 19.5322L22.0886 19.373C21.9446 18.9441 21.7482 18.5202 21.5056 18.1134L21.0762 18.3695ZM20.3593 17.4722C20.6221 17.712 20.8639 18.0131 21.0761 18.3694L21.5057 18.1135C21.2717 17.7207 21 17.3799 20.6963 17.1028L20.3593 17.4722ZM19.4473 16.933C19.8159 17.0721 20.1213 17.2551 20.3593 17.4722L20.6963 17.1028C20.4044 16.8365 20.0419 16.623 19.6239 16.4652L19.4473 16.933ZM18.3119 16.7251C18.732 16.7358 19.1128 16.8068 19.4473 16.933L19.6238 16.4652C19.23 16.3166 18.7929 16.2372 18.3246 16.2253L18.3119 16.7251ZM18.1435 16.8645C18.2951 16.7704 18.3851 16.7216 18.4313 16.6982L18.2052 16.2522C18.1432 16.2836 18.0404 16.34 17.8798 16.4397L18.1435 16.8645ZM17.054 17.5344C17.4686 17.2816 17.8252 17.0625 18.1437 16.8644L17.8796 16.4398C17.5627 16.6369 17.2075 16.8552 16.7937 17.1074L17.054 17.5344ZM15.25 18.3046C15.9658 18.084 16.574 17.8262 17.0537 17.5345L16.794 17.1073C16.3599 17.3712 15.7928 17.6141 15.1028 17.8268L15.25 18.3046ZM12.9994 18.6493C13.7521 18.6493 14.5094 18.5329 15.25 18.3046L15.1027 17.8268C14.4081 18.0409 13.7004 18.1493 12.9994 18.1493V18.6493ZM10.7485 18.3044C11.4896 18.5329 12.2467 18.6493 12.9994 18.6493V18.1493C12.2984 18.1493 11.5909 18.0409 10.8959 17.8266L10.7485 18.3044ZM8.94587 17.5349C9.425 17.8262 10.0334 18.0842 10.7487 18.3044L10.8958 17.8265C10.2064 17.6143 9.63907 17.3712 9.20563 17.1077L8.94587 17.5349ZM7.8552 16.8644C8.17358 17.0623 8.54038 17.2879 8.94571 17.5348L9.2058 17.1078C8.80157 16.8616 8.43607 16.6367 8.11912 16.4397L7.8552 16.8644ZM7.56752 16.6982C7.61388 16.7217 7.70385 16.7703 7.85514 16.8644L8.11918 16.4398C7.95824 16.3397 7.85547 16.2836 7.7936 16.2522L7.56752 16.6982ZM6.5519 16.933C6.88617 16.8068 7.26699 16.7358 7.68693 16.7251L7.67419 16.2253C7.20611 16.2372 6.76893 16.3166 6.37533 16.4652L6.5519 16.933ZM5.63976 17.4721C5.87764 17.2549 6.18299 17.0722 6.55188 16.933L6.37535 16.4652C5.95722 16.623 5.59464 16.8362 5.30261 17.1029L5.63976 17.4721ZM4.92282 18.3693C5.1351 18.0133 5.37685 17.7122 5.63975 17.4721L5.30262 17.1029C4.99899 17.3801 4.72733 17.7209 4.49339 18.1132L4.92282 18.3693ZM4.3846 19.5324C4.51687 19.1386 4.69775 18.7472 4.9229 18.3691L4.49331 18.1133C4.25091 18.5203 4.05478 18.944 3.91062 19.3732L4.3846 19.5324ZM4.03298 20.9075C4.12631 20.412 4.2447 19.9492 4.38462 19.5323L3.91061 19.3732C3.76243 19.8147 3.6386 20.3001 3.54162 20.8149L4.03298 20.9075ZM3.84351 22.3104C3.8745 21.8832 3.93805 21.4113 4.03297 20.9075L3.54162 20.8149C3.44381 21.3341 3.3774 21.825 3.34482 22.2742L3.84351 22.3104ZM3.79527 23.6754C3.79527 23.2098 3.81138 22.7507 3.8435 22.3105L3.34483 22.2741C3.31176 22.7272 3.29527 23.1985 3.29527 23.6754H3.79527ZM4.53393 25.5819C4.04493 25.138 3.79527 24.5272 3.79527 23.6754H3.29527C3.29527 24.6354 3.58238 25.3934 4.19786 25.9521L4.53393 25.5819ZM6.65152 26.2764C5.72041 26.2764 5.03898 26.0403 4.53391 25.5819L4.19787 25.9521C4.81862 26.5155 5.63237 26.7764 6.65152 26.7764V26.2764ZM19.3483 26.2764H6.65152V26.7764H19.3483V26.2764Z" fill="white"/>
</svg>
