<svg width="295" height="281" viewBox="0 0 295 281" fill="none" xmlns="http://www.w3.org/2000/svg">
<path fill-rule="evenodd" clip-rule="evenodd" d="M220 0H252.039C275.766 0 295 19.3537 295 43.2277V74H294.272V43.2277C294.272 19.7584 275.363 0.732673 252.039 0.732673H220V0Z" fill="#979797"/>
<path fill-rule="evenodd" clip-rule="evenodd" d="M75 0H42.9612C19.2344 0 0 19.3537 0 43.2277V74H0.728155V43.2277C0.728155 19.7584 19.6365 0.732673 42.9612 0.732673H75V0Z" fill="#979797"/>
<path fill-rule="evenodd" clip-rule="evenodd" d="M220 281H252.039C275.766 281 295 261.646 295 237.772V207H294.272V237.772C294.272 261.242 275.363 280.267 252.039 280.267H220V281Z" fill="#979797"/>
<path fill-rule="evenodd" clip-rule="evenodd" d="M75 281H42.9612C19.2344 281 0 261.646 0 237.772V207H0.728155V237.772C0.728155 261.242 19.6365 280.267 42.9612 280.267H75V281Z" fill="#979797"/>
</svg>
